<svg width="39" height="40" viewBox="0 0 39 40" fill="none" xmlns="http://www.w3.org/2000/svg">
<path d="M0.645828 10.2083V0.416656H10.0729V4.33332H4.41666V10.2083H0.645828ZM0.645828 39.5833V29.7917H4.41666V35.6667H10.0729V39.5833H0.645828ZM28.9271 39.5833V35.6667H34.5833V29.7917H38.3542V39.5833H28.9271ZM34.5833 10.2083V4.33332H28.9271V0.416656H38.3542V10.2083H34.5833ZM29.8698 30.7708H32.6979V33.7083H29.8698V30.7708ZM29.8698 24.8958H32.6979V27.8333H29.8698V24.8958ZM27.0417 27.8333H29.8698V30.7708H27.0417V27.8333ZM24.2135 30.7708H27.0417V33.7083H24.2135V30.7708ZM21.3854 27.8333H24.2135V30.7708H21.3854V27.8333ZM27.0417 21.9583H29.8698V24.8958H27.0417V21.9583ZM24.2135 24.8958H27.0417V27.8333H24.2135V24.8958ZM21.3854 21.9583H24.2135V24.8958H21.3854V21.9583ZM32.6979 6.29166V18.0417H21.3854V6.29166H32.6979ZM17.6146 21.9583V33.7083H6.30208V21.9583H17.6146ZM17.6146 6.29166V18.0417H6.30208V6.29166H17.6146ZM14.7865 30.7708V24.8958H9.1302V30.7708H14.7865ZM14.7865 15.1042V9.22916H9.1302V15.1042H14.7865ZM29.8698 15.1042V9.22916H24.2135V15.1042H29.8698Z" fill="#2D2D2D"/>
</svg>
