<?xml version="1.0" standalone="no"?>
<svg version="1.0" xmlns="http://www.w3.org/2000/svg"
 width="512.000000pt" height="512.000000pt" viewBox="0 0 512.000000 512.000000"
 preserveAspectRatio="xMidYMid meet">

<g transform="translate(0.000000,512.000000) scale(0.100000,-0.100000)"
fill="#0000ff" stroke="none">
<path d="M2375 5105 c-250 -35 -456 -123 -660 -281 -398 -308 -593 -828 -499
-1328 27 -141 141 -472 488 -1421 267 -727 759 -2050 766 -2058 8 -9 482 1091
863 1998 438 1044 548 1334 577 1519 48 311 -9 625 -161 891 -280 489 -822
757 -1374 680z m450 -319 c475 -124 805 -549 805 -1039 0 -292 -107 -553 -311
-757 -365 -365 -926 -420 -1355 -134 -239 159 -405 412 -459 700 -23 121 -17
335 14 451 108 413 436 718 858 798 119 22 321 14 448 -19z"/>
<path d="M2019 4467 c-48 -32 -77 -80 -84 -140 -3 -29 -5 -279 -3 -557 3 -551
1 -533 62 -589 23 -21 26 -33 26 -88 0 -57 2 -64 27 -80 19 -13 47 -18 94 -18
91 0 123 22 127 89 l3 46 295 0 294 0 0 -42 c0 -24 4 -48 8 -55 12 -19 78 -43
117 -43 39 0 105 24 117 43 4 7 8 39 8 73 0 49 4 65 21 80 55 49 54 39 57 584
2 278 0 528 -3 557 -7 60 -36 108 -84 140 l-34 23 -507 0 -507 0 -34 -23z
m801 -77 l0 -30 -260 0 -260 0 0 30 0 30 260 0 260 0 0 -30z m238 -76 l22 -6
0 -229 0 -229 -26 -10 c-15 -6 -214 -10 -494 -10 -280 0 -479 4 -494 10 l-26
10 0 229 c0 210 1 230 18 234 26 7 974 8 1000 1z m-658 -819 l0 -65 -165 0
-165 0 0 65 0 65 165 0 165 0 0 -65z m670 0 l0 -65 -165 0 -165 0 0 65 0 65
165 0 165 0 0 -65z m-330 -295 l0 -50 -160 0 -160 0 0 43 c0 24 3 47 7 50 3 4
75 7 160 7 l153 0 0 -50z"/>
</g>
</svg>
