<svg width="25" height="24" viewBox="0 0 25 24" fill="none" xmlns="http://www.w3.org/2000/svg">
<path d="M8.125 8C7.025 8 6.08333 7.60833 5.3 6.825C4.51667 6.04167 4.125 5.1 4.125 4C4.125 2.9 4.51667 1.95833 5.3 1.175C6.08333 0.391667 7.025 0 8.125 0C9.225 0 10.1667 0.391667 10.95 1.175C11.7333 1.95833 12.125 2.9 12.125 4C12.125 5.1 11.7333 6.04167 10.95 6.825C10.1667 7.60833 9.225 8 8.125 8ZM0.125 16V13.2C0.125 12.6333 0.270833 12.1125 0.5625 11.6375C0.854167 11.1625 1.24167 10.8 1.725 10.55C2.75833 10.0333 3.80833 9.64583 4.875 9.3875C5.94167 9.12917 7.025 9 8.125 9C9.225 9 10.3083 9.12917 11.375 9.3875C12.4417 9.64583 13.4917 10.0333 14.525 10.55C15.0083 10.8 15.3958 11.1625 15.6875 11.6375C15.9792 12.1125 16.125 12.6333 16.125 13.2V16H0.125ZM2.125 14H14.125V13.2C14.125 13.0167 14.0792 12.85 13.9875 12.7C13.8958 12.55 13.775 12.4333 13.625 12.35C12.725 11.9 11.8167 11.5625 10.9 11.3375C9.98333 11.1125 9.05833 11 8.125 11C7.19167 11 6.26667 11.1125 5.35 11.3375C4.43333 11.5625 3.525 11.9 2.625 12.35C2.475 12.4333 2.35417 12.55 2.2625 12.7C2.17083 12.85 2.125 13.0167 2.125 13.2V14ZM8.125 6C8.675 6 9.14583 5.80417 9.5375 5.4125C9.92917 5.02083 10.125 4.55 10.125 4C10.125 3.45 9.92917 2.97917 9.5375 2.5875C9.14583 2.19583 8.675 2 8.125 2C7.575 2 7.10417 2.19583 6.7125 2.5875C6.32083 2.97917 6.125 3.45 6.125 4C6.125 4.55 6.32083 5.02083 6.7125 5.4125C7.10417 5.80417 7.575 6 8.125 6Z" fill="#E32020"/>
</svg>
