<svg width="19" height="18" viewBox="0 0 19 18" fill="none" xmlns="http://www.w3.org/2000/svg">
<path d="M12.125 18L6.125 15.9L1.475 17.7C1.14167 17.8333 0.833333 17.7958 0.55 17.5875C0.266667 17.3792 0.125 17.1 0.125 16.75V2.75C0.125 2.53333 0.1875 2.34167 0.3125 2.175C0.4375 2.00833 0.608333 1.88333 0.825 1.8L6.125 0L12.125 2.1L16.775 0.3C17.1083 0.166667 17.4167 0.204167 17.7 0.4125C17.9833 0.620833 18.125 0.9 18.125 1.25V15.25C18.125 15.4667 18.0625 15.6583 17.9375 15.825C17.8125 15.9917 17.6417 16.1167 17.425 16.2L12.125 18ZM11.125 15.55V3.85L7.125 2.45V14.15L11.125 15.55ZM13.125 15.55L16.125 14.55V2.7L13.125 3.85V15.55ZM2.125 15.3L5.125 14.15V2.45L2.125 3.45V15.3Z" fill="#E32020"/>
</svg>
