<svg width="25" height="24" viewBox="0 0 25 24" fill="none" xmlns="http://www.w3.org/2000/svg">
<mask id="mask0_3_324" style="mask-type:alpha" maskUnits="userSpaceOnUse" x="0" y="0" width="25" height="24">
<rect x="0.875" width="24" height="24" fill="#D9D9D9"/>
</mask>
<g mask="url(#mask0_3_324)">
<path d="M20.525 8.4L21.275 7.65L19.375 5.8V3H18.375V6.2L20.525 8.4ZM7.375 17C7.79167 17 8.14583 16.8542 8.4375 16.5625C8.72917 16.2708 8.875 15.9167 8.875 15.5C8.875 15.0833 8.72917 14.7292 8.4375 14.4375C8.14583 14.1458 7.79167 14 7.375 14C6.95833 14 6.60417 14.1458 6.3125 14.4375C6.02083 14.7292 5.875 15.0833 5.875 15.5C5.875 15.9167 6.02083 16.2708 6.3125 16.5625C6.60417 16.8542 6.95833 17 7.375 17ZM14.375 17C14.7917 17 15.1458 16.8542 15.4375 16.5625C15.7292 16.2708 15.875 15.9167 15.875 15.5C15.875 15.0833 15.7292 14.7292 15.4375 14.4375C15.1458 14.1458 14.7917 14 14.375 14C13.9583 14 13.6042 14.1458 13.3125 14.4375C13.0208 14.7292 12.875 15.0833 12.875 15.5C12.875 15.9167 13.0208 16.2708 13.3125 16.5625C13.6042 16.8542 13.9583 17 14.375 17ZM4.875 22C4.59167 22 4.35417 21.9042 4.1625 21.7125C3.97083 21.5208 3.875 21.2833 3.875 21V18.95C3.575 18.6167 3.33333 18.2458 3.15 17.8375C2.96667 17.4292 2.875 16.9833 2.875 16.5V7C2.875 6.5 2.97083 5.99583 3.1625 5.4875C3.35417 4.97917 3.77917 4.525 4.4375 4.125C5.09583 3.725 6.06667 3.42083 7.35 3.2125C8.63333 3.00417 10.3583 2.95 12.525 3.05C12.3917 3.36667 12.2792 3.6875 12.1875 4.0125C12.0958 4.3375 12.025 4.66667 11.975 5C10.1083 4.95 8.63333 5.01667 7.55 5.2C6.46667 5.38333 5.725 5.65 5.325 6H11.875C11.875 6.33333 11.9 6.66667 11.95 7C12 7.33333 12.075 7.66667 12.175 8H4.875V11H13.975C14.6083 11.6333 15.3458 12.125 16.1875 12.475C17.0292 12.825 17.925 13 18.875 13V16.5C18.875 16.9833 18.7833 17.4292 18.6 17.8375C18.4167 18.2458 18.175 18.6167 17.875 18.95V21C17.875 21.2833 17.7792 21.5208 17.5875 21.7125C17.3958 21.9042 17.1583 22 16.875 22H15.875C15.5917 22 15.3542 21.9042 15.1625 21.7125C14.9708 21.5208 14.875 21.2833 14.875 21V20H6.875V21C6.875 21.2833 6.77917 21.5208 6.5875 21.7125C6.39583 21.9042 6.15833 22 5.875 22H4.875ZM18.875 11C17.4917 11 16.3125 10.5125 15.3375 9.5375C14.3625 8.5625 13.875 7.38333 13.875 6C13.875 4.61667 14.3625 3.4375 15.3375 2.4625C16.3125 1.4875 17.4917 1 18.875 1C20.2583 1 21.4375 1.4875 22.4125 2.4625C23.3875 3.4375 23.875 4.61667 23.875 6C23.875 7.38333 23.3875 8.5625 22.4125 9.5375C21.4375 10.5125 20.2583 11 18.875 11ZM6.875 18H14.875C15.425 18 15.8958 17.8042 16.2875 17.4125C16.6792 17.0208 16.875 16.55 16.875 16V13H4.875V16C4.875 16.55 5.07083 17.0208 5.4625 17.4125C5.85417 17.8042 6.325 18 6.875 18Z" fill="#E32020"/>
</g>
</svg>
