<svg xmlns="http://www.w3.org/2000/svg" xmlns:xlink="http://www.w3.org/1999/xlink" width="500" zoomAndPan="magnify" viewBox="0 0 375 374.999991" height="500" preserveAspectRatio="xMidYMid meet" version="1.0"><path fill="#B40000" d="M 74.414062 357.847656 L 7.128906 357.847656 C 6.667969 357.847656 6.210938 357.800781 5.753906 357.710938 C 5.300781 357.621094 4.863281 357.488281 4.433594 357.3125 C 4.007812 357.132812 3.601562 356.917969 3.21875 356.660156 C 2.832031 356.402344 2.476562 356.113281 2.152344 355.785156 C 1.824219 355.457031 1.53125 355.101562 1.277344 354.71875 C 1.019531 354.335938 0.800781 353.929688 0.625 353.503906 C 0.449219 353.074219 0.316406 352.636719 0.222656 352.183594 C 0.132812 351.730469 0.0898438 351.273438 0.0898438 350.808594 L 0.0898438 275.757812 C 0.0898438 275.296875 0.132812 274.835938 0.222656 274.382812 C 0.316406 273.929688 0.449219 273.492188 0.625 273.066406 C 0.800781 272.636719 1.019531 272.230469 1.277344 271.847656 C 1.53125 271.464844 1.824219 271.109375 2.152344 270.78125 C 2.476562 270.457031 2.832031 270.164062 3.21875 269.90625 C 3.601562 269.648438 4.007812 269.433594 4.433594 269.257812 C 4.863281 269.078125 5.300781 268.945312 5.753906 268.855469 C 6.210938 268.765625 6.667969 268.722656 7.128906 268.722656 C 7.589844 268.722656 8.050781 268.765625 8.503906 268.855469 C 8.957031 268.945312 9.394531 269.078125 9.824219 269.257812 C 10.25 269.433594 10.65625 269.648438 11.039062 269.90625 C 11.425781 270.164062 11.78125 270.457031 12.105469 270.78125 C 12.433594 271.109375 12.726562 271.464844 12.984375 271.847656 C 13.238281 272.230469 13.457031 272.636719 13.632812 273.066406 C 13.808594 273.492188 13.945312 273.929688 14.035156 274.382812 C 14.125 274.835938 14.167969 275.296875 14.167969 275.757812 L 14.167969 343.773438 L 74.414062 343.773438 C 74.875 343.773438 75.332031 343.820312 75.785156 343.910156 C 76.238281 344 76.679688 344.132812 77.105469 344.308594 C 77.535156 344.484375 77.941406 344.703125 78.324219 344.960938 C 78.707031 345.214844 79.066406 345.507812 79.390625 345.835938 C 79.71875 346.160156 80.011719 346.515625 80.265625 346.902344 C 80.523438 347.285156 80.742188 347.691406 80.917969 348.117188 C 81.09375 348.542969 81.226562 348.984375 81.316406 349.4375 C 81.410156 349.890625 81.453125 350.347656 81.453125 350.808594 C 81.453125 351.273438 81.410156 351.730469 81.316406 352.183594 C 81.226562 352.636719 81.09375 353.074219 80.917969 353.503906 C 80.742188 353.929688 80.523438 354.335938 80.265625 354.71875 C 80.011719 355.101562 79.71875 355.457031 79.390625 355.785156 C 79.066406 356.113281 78.707031 356.402344 78.324219 356.660156 C 77.941406 356.917969 77.535156 357.132812 77.109375 357.3125 C 76.679688 357.488281 76.238281 357.621094 75.785156 357.710938 C 75.332031 357.800781 74.875 357.847656 74.414062 357.847656 Z M 74.414062 357.847656 " fill-opacity="1" fill-rule="nonzero"/><path fill="#B40000" d="M 368.246094 357.847656 L 300.960938 357.847656 C 300.5 357.847656 300.042969 357.800781 299.589844 357.710938 C 299.136719 357.621094 298.695312 357.488281 298.269531 357.3125 C 297.839844 357.132812 297.433594 356.917969 297.050781 356.660156 C 296.667969 356.402344 296.3125 356.113281 295.984375 355.785156 C 295.65625 355.457031 295.367188 355.101562 295.109375 354.71875 C 294.851562 354.335938 294.636719 353.929688 294.457031 353.503906 C 294.28125 353.074219 294.148438 352.636719 294.058594 352.183594 C 293.96875 351.730469 293.921875 351.273438 293.921875 350.808594 C 293.921875 350.347656 293.96875 349.890625 294.058594 349.4375 C 294.148438 348.984375 294.28125 348.542969 294.457031 348.117188 C 294.636719 347.691406 294.851562 347.285156 295.109375 346.902344 C 295.367188 346.515625 295.65625 346.160156 295.984375 345.835938 C 296.3125 345.507812 296.667969 345.214844 297.050781 344.960938 C 297.433594 344.703125 297.839844 344.484375 298.269531 344.308594 C 298.695312 344.132812 299.136719 344 299.589844 343.910156 C 300.042969 343.820312 300.5 343.773438 300.960938 343.773438 L 361.207031 343.773438 L 361.207031 275.757812 C 361.207031 275.296875 361.25 274.835938 361.339844 274.382812 C 361.429688 273.929688 361.566406 273.492188 361.742188 273.066406 C 361.917969 272.636719 362.136719 272.230469 362.394531 271.847656 C 362.648438 271.464844 362.941406 271.109375 363.269531 270.78125 C 363.59375 270.457031 363.949219 270.164062 364.335938 269.90625 C 364.71875 269.648438 365.125 269.433594 365.550781 269.257812 C 365.980469 269.078125 366.417969 268.945312 366.871094 268.855469 C 367.324219 268.765625 367.785156 268.722656 368.246094 268.722656 C 368.707031 268.722656 369.167969 268.765625 369.621094 268.855469 C 370.074219 268.945312 370.511719 269.078125 370.941406 269.257812 C 371.367188 269.433594 371.773438 269.648438 372.15625 269.90625 C 372.542969 270.164062 372.898438 270.457031 373.222656 270.78125 C 373.550781 271.109375 373.84375 271.464844 374.101562 271.847656 C 374.355469 272.230469 374.574219 272.636719 374.75 273.066406 C 374.925781 273.492188 375.0625 273.929688 375.152344 274.382812 C 375.242188 274.835938 375.285156 275.296875 375.285156 275.757812 L 375.285156 350.808594 C 375.285156 351.273438 375.242188 351.730469 375.152344 352.183594 C 375.0625 352.636719 374.925781 353.074219 374.75 353.503906 C 374.574219 353.929688 374.355469 354.335938 374.101562 354.71875 C 373.84375 355.101562 373.550781 355.457031 373.222656 355.785156 C 372.898438 356.113281 372.542969 356.402344 372.15625 356.660156 C 371.773438 356.917969 371.367188 357.132812 370.941406 357.3125 C 370.511719 357.488281 370.074219 357.621094 369.621094 357.710938 C 369.167969 357.800781 368.707031 357.847656 368.246094 357.847656 Z M 368.246094 357.847656 " fill-opacity="1" fill-rule="nonzero"/><path fill="#B40000" d="M 368.246094 106.667969 C 367.785156 106.667969 367.324219 106.625 366.871094 106.53125 C 366.417969 106.441406 365.980469 106.308594 365.550781 106.132812 C 365.125 105.957031 364.71875 105.738281 364.335938 105.484375 C 363.949219 105.226562 363.59375 104.933594 363.269531 104.605469 C 362.941406 104.28125 362.648438 103.925781 362.394531 103.542969 C 362.136719 103.15625 361.917969 102.75 361.742188 102.324219 C 361.566406 101.898438 361.429688 101.457031 361.339844 101.003906 C 361.25 100.550781 361.207031 100.09375 361.207031 99.632812 L 361.207031 31.617188 L 300.960938 31.617188 C 300.5 31.617188 300.042969 31.570312 299.589844 31.480469 C 299.136719 31.390625 298.695312 31.257812 298.269531 31.078125 C 297.839844 30.902344 297.433594 30.6875 297.050781 30.429688 C 296.667969 30.171875 296.3125 29.882812 295.984375 29.554688 C 295.65625 29.226562 295.367188 28.871094 295.109375 28.488281 C 294.851562 28.105469 294.636719 27.699219 294.457031 27.273438 C 294.28125 26.84375 294.148438 26.40625 294.058594 25.953125 C 293.96875 25.5 293.921875 25.042969 293.921875 24.578125 C 293.921875 24.117188 293.96875 23.660156 294.058594 23.207031 C 294.148438 22.753906 294.28125 22.3125 294.457031 21.886719 C 294.636719 21.460938 294.851562 21.054688 295.109375 20.671875 C 295.367188 20.285156 295.65625 19.929688 295.984375 19.605469 C 296.3125 19.277344 296.667969 18.984375 297.050781 18.730469 C 297.433594 18.472656 297.839844 18.253906 298.269531 18.078125 C 298.695312 17.902344 299.136719 17.769531 299.589844 17.679688 C 300.042969 17.589844 300.5 17.542969 300.960938 17.542969 L 368.246094 17.542969 C 368.707031 17.542969 369.167969 17.589844 369.621094 17.679688 C 370.074219 17.769531 370.511719 17.902344 370.941406 18.078125 C 371.367188 18.253906 371.773438 18.472656 372.15625 18.730469 C 372.542969 18.984375 372.898438 19.277344 373.222656 19.605469 C 373.550781 19.929688 373.84375 20.285156 374.101562 20.671875 C 374.355469 21.054688 374.574219 21.460938 374.75 21.886719 C 374.925781 22.3125 375.0625 22.753906 375.152344 23.207031 C 375.242188 23.660156 375.285156 24.117188 375.285156 24.578125 L 375.285156 99.632812 C 375.285156 100.09375 375.242188 100.550781 375.152344 101.003906 C 375.0625 101.457031 374.925781 101.898438 374.75 102.324219 C 374.574219 102.75 374.355469 103.15625 374.101562 103.542969 C 373.84375 103.925781 373.550781 104.28125 373.222656 104.605469 C 372.898438 104.933594 372.542969 105.226562 372.15625 105.484375 C 371.773438 105.738281 371.367188 105.957031 370.941406 106.132812 C 370.511719 106.308594 370.074219 106.441406 369.621094 106.53125 C 369.167969 106.625 368.707031 106.667969 368.246094 106.667969 Z M 368.246094 106.667969 " fill-opacity="1" fill-rule="nonzero"/><path fill="#B40000" d="M 7.128906 106.667969 C 6.667969 106.667969 6.210938 106.625 5.753906 106.53125 C 5.300781 106.441406 4.863281 106.308594 4.433594 106.132812 C 4.007812 105.957031 3.601562 105.738281 3.21875 105.484375 C 2.832031 105.226562 2.476562 104.933594 2.152344 104.605469 C 1.824219 104.28125 1.53125 103.925781 1.277344 103.542969 C 1.019531 103.15625 0.800781 102.75 0.625 102.324219 C 0.449219 101.898438 0.316406 101.457031 0.222656 101.003906 C 0.132812 100.550781 0.0898438 100.09375 0.0898438 99.632812 L 0.0898438 24.578125 C 0.0898438 24.117188 0.132812 23.660156 0.222656 23.207031 C 0.316406 22.753906 0.449219 22.3125 0.625 21.886719 C 0.800781 21.460938 1.019531 21.054688 1.277344 20.671875 C 1.53125 20.285156 1.824219 19.929688 2.152344 19.605469 C 2.476562 19.277344 2.832031 18.984375 3.21875 18.730469 C 3.601562 18.472656 4.007812 18.253906 4.433594 18.078125 C 4.863281 17.902344 5.300781 17.769531 5.753906 17.679688 C 6.210938 17.589844 6.667969 17.542969 7.128906 17.542969 L 74.414062 17.542969 C 74.875 17.542969 75.332031 17.589844 75.785156 17.679688 C 76.238281 17.769531 76.679688 17.902344 77.105469 18.078125 C 77.535156 18.253906 77.941406 18.472656 78.324219 18.730469 C 78.707031 18.984375 79.066406 19.277344 79.390625 19.605469 C 79.71875 19.929688 80.011719 20.285156 80.265625 20.671875 C 80.523438 21.054688 80.742188 21.460938 80.917969 21.886719 C 81.09375 22.3125 81.226562 22.753906 81.316406 23.207031 C 81.410156 23.660156 81.453125 24.117188 81.453125 24.578125 C 81.453125 25.042969 81.410156 25.5 81.316406 25.953125 C 81.226562 26.40625 81.09375 26.84375 80.917969 27.273438 C 80.742188 27.699219 80.523438 28.105469 80.265625 28.488281 C 80.011719 28.871094 79.71875 29.226562 79.390625 29.554688 C 79.066406 29.882812 78.707031 30.171875 78.324219 30.429688 C 77.941406 30.6875 77.535156 30.902344 77.109375 31.078125 C 76.679688 31.257812 76.238281 31.390625 75.785156 31.480469 C 75.332031 31.570312 74.875 31.617188 74.414062 31.617188 L 14.167969 31.617188 L 14.167969 99.632812 C 14.167969 100.09375 14.125 100.550781 14.035156 101.003906 C 13.945312 101.457031 13.808594 101.898438 13.632812 102.324219 C 13.457031 102.75 13.238281 103.15625 12.984375 103.542969 C 12.726562 103.925781 12.433594 104.28125 12.105469 104.605469 C 11.78125 104.933594 11.425781 105.226562 11.039062 105.484375 C 10.65625 105.738281 10.25 105.957031 9.824219 106.132812 C 9.394531 106.308594 8.957031 106.441406 8.503906 106.53125 C 8.050781 106.625 7.589844 106.667969 7.128906 106.667969 Z M 7.128906 106.667969 " fill-opacity="1" fill-rule="nonzero"/></svg>